<svg width="278" height="280" viewBox="0 0 278 280" fill="none" xmlns="http://www.w3.org/2000/svg">
<path d="M183.945 193.523L191.891 191.518C199.15 189.685 204.825 182.768 206.33 173.912L207.973 164.224L209.615 173.912C211.121 182.768 216.795 189.685 224.059 191.518L232.001 193.523L224.059 195.527C216.795 197.36 211.121 204.281 209.615 213.134L207.973 222.821L206.33 213.134C204.825 204.281 199.15 197.36 191.891 195.527L183.945 193.523Z" fill="#F4A261"/>
<path d="M145.165 152.772L151.216 151.526C156.746 150.383 161.068 146.077 162.215 140.562L163.465 134.529L164.719 140.562C165.862 146.077 170.183 150.383 175.717 151.526L181.765 152.772L175.717 154.022C170.183 155.162 165.862 159.472 164.719 164.986L163.465 171.019L162.215 164.986C161.068 159.472 156.746 155.162 151.216 154.022L145.165 152.772Z" fill="#F4A261"/>
<path d="M218.129 128.077L227.854 127.033C232.481 126.081 236.094 122.475 237.05 117.868L238.098 104L239.146 117.868C240.103 122.475 243.715 126.081 248.342 127.033L257.301 128.077L248.342 129.122C243.715 130.074 240.103 133.68 239.146 138.291L238.098 156.442L237.05 138.291C236.094 133.68 232.481 130.074 227.854 129.122L218.129 128.077Z" fill="#F4A261"/>
<path d="M143 201.853L145.047 201.282C146.921 200.76 148.385 198.793 148.774 196.278L149.197 193.523L149.62 196.278C150.008 198.793 151.472 200.76 153.343 201.282L155.393 201.853L153.343 202.421C151.472 202.943 150.008 204.91 149.62 207.429L149.197 210.18L148.774 207.429C148.385 204.91 146.921 202.943 145.047 202.421L143 201.853Z" fill="#F4A261"/>
<path d="M267.282 180.604L268.959 180.139C270.491 179.712 271.691 178.1 272.008 176.038L272.355 173.786L272.701 176.038C273.018 178.1 274.218 179.712 275.75 180.139L277.427 180.604L275.75 181.072C274.218 181.495 273.018 183.107 272.701 185.169L272.355 187.425L272.008 185.169C271.691 183.107 270.491 181.495 268.959 181.072L267.282 180.604Z" fill="#F4A261"/>
<path d="M230.728 233.61L233.037 232.966C235.148 232.379 236.802 230.161 237.237 227.322L237.717 224.216L238.193 227.322C238.632 230.161 240.282 232.379 242.393 232.966L244.702 233.61L242.393 234.25C240.282 234.841 238.632 237.059 238.193 239.898L237.717 243L237.237 239.898C236.802 237.059 235.148 234.841 233.037 234.25L230.728 233.61Z" fill="#F4A261"/>
<path d="M167.519 229.037L168.644 228.724C169.669 228.439 170.473 227.36 170.686 225.977L170.919 224.468L171.151 225.977C171.365 227.36 172.169 228.439 173.194 228.724L174.318 229.037L173.194 229.349C172.169 229.635 171.365 230.718 171.151 232.097L170.919 233.61L170.686 232.097C170.473 230.718 169.669 229.635 168.644 229.349L167.519 229.037Z" fill="#F4A261"/>
<path d="M181.482 89.5226L173.536 87.5181C166.277 85.685 160.602 78.7682 159.097 69.9116L157.454 60.2242L155.812 69.9116C154.306 78.7682 148.632 85.685 141.368 87.5181L133.426 89.5226L141.368 91.5272C148.632 93.3603 154.306 100.281 155.812 109.134L157.454 118.821L159.097 109.134C160.602 100.281 166.277 93.3603 173.536 91.5272L181.482 89.5226Z" fill="#F4A261"/>
<path d="M220.262 48.7723L214.21 47.5261C208.681 46.3829 204.359 42.0765 203.212 36.5621L201.962 30.5294L200.708 36.5621C199.565 42.0765 195.243 46.3829 189.71 47.5261L183.662 48.7723L189.71 50.0223C195.243 51.1618 199.565 55.4719 200.708 60.9864L201.962 67.0191L203.212 60.9864C204.359 55.4719 208.681 51.1618 214.21 50.0223L220.262 48.7723Z" fill="#F4A261"/>
<path d="M147.298 24.0775L137.573 23.0333C132.946 22.0806 129.333 18.4754 128.377 13.868L127.329 8.42847e-07L126.281 13.868C125.324 18.4754 121.711 22.0806 117.085 23.0333L108.125 24.0775L117.085 25.1217C121.711 26.0744 125.324 29.6796 126.281 34.2908L127.329 52.4423L128.377 34.2908C129.333 29.6796 132.946 26.0744 137.573 25.1217L147.298 24.0775Z" fill="#F4A261"/>
<path d="M222.427 97.8535L220.38 97.2818C218.505 96.7597 217.042 94.7933 216.653 92.2781L216.23 89.5228L215.807 92.2781C215.419 94.7933 213.955 96.7597 212.084 97.2818L210.034 97.8535L212.084 98.4213C213.955 98.9434 215.419 100.91 215.807 103.429L216.23 106.18L216.653 103.429C217.042 100.91 218.505 98.9434 220.38 98.4213L222.427 97.8535Z" fill="#F4A261"/>
<path d="M98.1447 76.6036L96.4679 76.1387C94.9359 75.7118 93.7355 74.0998 93.4191 72.0381L93.0724 69.7858L92.7256 72.0381C92.4093 74.0998 91.2088 75.7118 89.6768 76.1387L88 76.6036L89.6768 77.0723C91.2088 77.4954 92.4093 79.1074 92.7256 81.1691L93.0724 83.4252L93.4191 81.1691C93.7355 79.1074 94.9359 77.4954 96.4679 77.0723L98.1447 76.6036Z" fill="#F4A261"/>
<path d="M134.699 129.61L132.39 128.966C130.278 128.379 128.624 126.161 128.19 123.322L127.71 120.216L127.233 123.322C126.795 126.161 125.145 128.379 123.034 128.966L120.724 129.61L123.034 130.25C125.145 130.841 126.795 133.059 127.233 135.898L127.71 139L128.19 135.898C128.624 133.059 130.278 130.841 132.39 130.25L134.699 129.61Z" fill="#F4A261"/>
<path d="M197.907 125.037L196.783 124.724C195.758 124.439 194.954 123.36 194.74 121.977L194.508 120.468L194.276 121.977C194.062 123.36 193.258 124.439 192.233 124.724L191.109 125.037L192.233 125.349C193.258 125.635 194.062 126.718 194.276 128.097L194.508 129.61L194.74 128.097C194.954 126.718 195.758 125.635 196.783 125.349L197.907 125.037Z" fill="#F4A261"/>
<path d="M93.4821 190.477L85.5363 192.482C78.2765 194.315 72.602 201.232 71.0967 210.088L69.4542 219.776L67.8117 210.088C66.3064 201.232 60.6319 194.315 53.3683 192.482L45.4263 190.477L53.3683 188.473C60.6319 186.64 66.3064 179.719 67.8117 170.866L69.4542 161.179L71.0967 170.866C72.602 179.719 78.2765 186.64 85.5363 188.473L93.4821 190.477Z" fill="#F4A261"/>
<path d="M132.262 231.228L126.21 232.474C120.681 233.617 116.359 237.923 115.212 243.438L113.962 249.471L112.708 243.438C111.565 237.923 107.243 233.617 101.71 232.474L95.662 231.228L101.71 229.978C107.243 228.838 111.565 224.528 112.708 219.014L113.962 212.981L115.212 219.014C116.359 224.528 120.681 228.838 126.21 229.978L132.262 231.228Z" fill="#F4A261"/>
<path d="M59.2981 255.923L49.5726 256.967C44.9461 257.919 41.3333 261.525 40.3768 266.132L39.3288 280L38.2808 266.132C37.3242 261.525 33.7115 257.919 29.085 256.967L20.1255 255.923L29.085 254.878C33.7115 253.926 37.3242 250.32 38.2808 245.709L39.3288 227.558L40.3768 245.709C41.3333 250.32 44.9461 253.926 49.5726 254.878L59.2981 255.923Z" fill="#F4A261"/>
<path d="M134.427 182.147L132.38 182.718C130.505 183.24 129.042 185.207 128.653 187.722L128.23 190.477L127.807 187.722C127.419 185.207 125.955 183.24 124.084 182.718L122.034 182.147L124.084 181.579C125.955 181.057 127.419 179.09 127.807 176.571L128.23 173.82L128.653 176.571C129.042 179.09 130.505 181.057 132.38 181.579L134.427 182.147Z" fill="#F4A261"/>
<path d="M10.1447 203.396L8.4679 203.861C6.9359 204.288 5.73546 205.9 5.41915 207.962L5.07235 210.214L4.72556 207.962C4.40925 205.9 3.20881 204.288 1.67681 203.861L0 203.396L1.67681 202.928C3.20881 202.505 4.40925 200.893 4.72556 198.831L5.07235 196.575L5.41915 198.831C5.73546 200.893 6.9359 202.505 8.4679 202.928L10.1447 203.396Z" fill="#F4A261"/>
<path d="M46.6991 150.39L44.3896 151.034C42.2784 151.621 40.6244 153.839 40.19 156.678L39.7098 159.784L39.2334 156.678C38.7952 153.839 37.145 151.621 35.0338 151.034L32.7244 150.39L35.0338 149.75C37.145 149.159 38.7952 146.941 39.2334 144.102L39.7098 141L40.19 144.102C40.6244 146.941 42.2784 149.159 44.3896 149.75L46.6991 150.39Z" fill="#F4A261"/>
<path d="M109.907 154.963L108.783 155.276C107.758 155.561 106.954 156.64 106.74 158.023L106.508 159.532L106.276 158.023C106.062 156.64 105.258 155.561 104.233 155.276L103.109 154.963L104.233 154.651C105.258 154.365 106.062 153.282 106.276 151.903L106.508 150.39L106.74 151.903C106.954 153.282 107.758 154.365 108.783 154.651L109.907 154.963Z" fill="#F4A261"/>
</svg>
